<svg width="40" height="40" viewBox="0 0 40 40" fill="none" xmlns="http://www.w3.org/2000/svg">
  <path d="M36.7929 8.40542C36.4795 7.93437 36.1401 7.48061 35.7789 7.03981C34.8825 5.93781 33.8686 4.93954 32.7546 4.06658C32.3064 3.71221 31.8407 3.37945 31.3621 3.07262C28.3768 1.12793 24.8042 0 20.9791 0C20.8007 0 20.6223 0 20.4482 0.00864311C20.2698 0.00432155 20.0914 0 19.9086 0C8.9121 0 0 8.85486 0 19.7711C0 30.6873 8.91645 39.5465 19.9086 39.5465C29.8303 39.5465 38.0592 32.3382 39.5692 22.9042C39.8564 21.5991 40 20.2551 40 18.8895C40 15.0131 38.8164 11.4046 36.7929 8.4011V8.40542ZM35.6092 27.8049C34.8651 29.0063 33.973 30.1169 32.9373 31.1109C32.611 31.4263 32.2715 31.7288 31.9234 32.0184C31.671 32.2215 31.4186 32.4203 31.1575 32.6104C28.2245 34.7539 24.6475 35.9294 20.9835 35.9294C11.5231 35.9294 3.82942 28.2846 3.82942 18.8895C3.82942 15.2119 5.00435 11.6898 7.17145 8.7814C7.59356 8.21527 8.05048 7.67076 8.55091 7.15217L8.68581 7.02252L9.4604 6.26625C10.2524 5.5532 11.101 4.92225 11.9974 4.37341C14.6823 2.73554 17.7894 1.85395 20.9835 1.85395C24.1775 1.85395 27.3586 2.77876 29.9782 4.3907C30.3916 4.64135 30.7963 4.91361 31.1836 5.19883C32.5022 6.16686 33.6728 7.32071 34.6606 8.61718C34.9565 9.0018 35.2306 9.39938 35.4917 9.8056C37.1714 12.4331 38.1462 15.5576 38.1462 18.8938C38.1462 22.2301 37.2541 25.1601 35.6179 27.8049H35.6092Z" fill="url(#paint0_linear_61_68)"/>
  <g filter="url(#filter0_d_61_68)">
    <path d="M37.2933 6.4953C37.2933 7.18675 37.1149 7.83931 36.7973 8.40111C36.4839 8.96723 36.0314 9.45125 35.4874 9.80129C34.8651 10.2032 34.1254 10.4366 33.329 10.4366C32.7328 10.4366 32.1671 10.3069 31.658 10.0735C30.8181 9.68461 30.1349 9.01477 29.7389 8.18071C29.4952 7.67077 29.3604 7.10032 29.3604 6.4953C29.3604 5.72175 29.5866 4.99572 29.9783 4.38639C30.3221 3.84187 30.8007 3.38811 31.3708 3.06831C31.9496 2.73987 32.6197 2.55405 33.329 2.55405C35.5179 2.55405 37.2977 4.31724 37.2977 6.4953H37.2933Z" fill="#FAFBFB"/>
  </g>
  <path d="M18.2897 31.2146C23.3367 31.2146 27.4281 27.1514 27.4281 22.1393C27.4281 17.1272 23.3367 13.0641 18.2897 13.0641C13.2428 13.0641 9.15137 17.1272 9.15137 22.1393C9.15137 27.1514 13.2428 31.2146 18.2897 31.2146Z" fill="url(#paint1_radial_61_68)"/>
  <defs>
    <filter id="filter0_d_61_68" x="27.3604" y="1.55405" width="11.9375" height="11.8825" filterUnits="userSpaceOnUse" color-interpolation-filters="sRGB">
      <feFlood flood-opacity="0" result="BackgroundImageFix"/>
      <feColorMatrix in="SourceAlpha" type="matrix" values="0 0 0 0 0 0 0 0 0 0 0 0 0 0 0 0 0 0 127 0" result="hardAlpha"/>
      <feOffset dy="1"/>
      <feGaussianBlur stdDeviation="1"/>
      <feComposite in2="hardAlpha" operator="out"/>
      <feColorMatrix type="matrix" values="0 0 0 0 0 0 0 0 0 0 0 0 0 0 0 0 0 0 0.1 0"/>
      <feBlend mode="normal" in2="BackgroundImageFix" result="effect1_dropShadow_61_68"/>
      <feBlend mode="normal" in="SourceGraphic" in2="effect1_dropShadow_61_68" result="shape"/>
    </filter>
    <linearGradient id="paint0_linear_61_68" x1="44.8296" y1="-6.9788" x2="23.7535" y2="41.1309" gradientUnits="userSpaceOnUse">
      <stop stop-color="#000D70"/>
      <stop offset="0.338706" stop-color="#12208A"/>
      <stop offset="1" stop-color="#F7FAFC"/>
    </linearGradient>
    <radialGradient id="paint1_radial_61_68" cx="0" cy="0" r="1" gradientUnits="userSpaceOnUse" gradientTransform="translate(27.4499 14.4229) rotate(133.152) scale(22.9586 21.6428)">
      <stop offset="0.0703481" stop-color="white"/>
      <stop offset="0.558631" stop-color="#E4E1EB"/>
      <stop offset="0.921875" stop-color="#2B3688"/>
    </radialGradient>
  </defs>
</svg>