<svg width="16" height="16" viewBox="0 0 17 16" fill="none" xmlns="http://www.w3.org/2000/svg">
    <path d="M14.7171 3.36217C14.5918 3.17375 14.456 2.99224 14.3116 2.81592C13.953 2.37513 13.5474 1.97581 13.1018 1.62663C12.9225 1.48489 12.7363 1.35178 12.5448 1.22905C11.3507 0.45117 9.92167 0 8.39164 0C8.32028 0 8.24891 0 8.17929 0.00345724C8.10792 0.00172862 8.03655 0 7.96345 0C3.56484 0 0 3.54195 0 7.90844C0 12.2749 3.56658 15.8186 7.96345 15.8186C11.9321 15.8186 15.2237 12.9353 15.8277 9.16169C15.9426 8.63965 16 8.10205 16 7.5558C16 6.00523 15.5265 4.56183 14.7171 3.36044V3.36217ZM14.2437 11.122C13.946 11.6025 13.5892 12.0468 13.1749 12.4443C13.0444 12.5705 12.9086 12.6915 12.7694 12.8074C12.6684 12.8886 12.5674 12.9681 12.463 13.0442C11.2898 13.9016 9.85901 14.3718 8.39339 14.3718C4.60923 14.3718 1.53177 11.3138 1.53177 7.5558C1.53177 6.08475 2.00174 4.67592 2.86858 3.51256C3.03742 3.28611 3.22019 3.0683 3.42036 2.86087L3.47432 2.80901L3.78416 2.5065C4.10096 2.22128 4.44038 1.9689 4.79895 1.74936C5.87293 1.09422 7.11575 0.741579 8.39339 0.741579C9.67102 0.741579 10.9434 1.1115 11.9913 1.75628C12.1567 1.85654 12.3185 1.96544 12.4735 2.07953C13.0009 2.46674 13.4691 2.92828 13.8642 3.44687C13.9826 3.60072 14.0923 3.75975 14.1967 3.92224C14.8686 4.97324 15.2585 6.22304 15.2585 7.55753C15.2585 8.89203 14.9017 10.064 14.2472 11.122H14.2437Z" fill="url(#paint0_linear_61_81)"/>
    <g filter="url(#filter0_d_61_81)">
        <path d="M14.9173 2.59811C14.9173 2.87469 14.846 3.13571 14.7189 3.36043C14.5936 3.58688 14.4125 3.78049 14.195 3.9205C13.9461 4.08127 13.6501 4.17461 13.3316 4.17461C13.0931 4.17461 12.8669 4.12275 12.6632 4.02941C12.3273 3.87383 12.054 3.6059 11.8956 3.27227C11.7981 3.06829 11.7441 2.84012 11.7441 2.59811C11.7441 2.28869 11.8347 1.99828 11.9913 1.75454C12.1288 1.53674 12.3203 1.35523 12.5483 1.22731C12.7798 1.09594 13.0479 1.02161 13.3316 1.02161C14.2072 1.02161 14.9191 1.72688 14.9191 2.59811H14.9173Z" fill="#12208A"/>
    </g>
    <path d="M7.31551 12.4858C9.3343 12.4858 10.9709 10.8606 10.9709 8.85572C10.9709 6.85087 9.3343 5.22562 7.31551 5.22562C5.29671 5.22562 3.66016 6.85087 3.66016 8.85572C3.66016 10.8606 5.29671 12.4858 7.31551 12.4858Z" fill="url(#paint1_radial_61_81)"/>
    <path d="M7.31551 12.4858C9.3343 12.4858 10.9709 10.8606 10.9709 8.85572C10.9709 6.85087 9.3343 5.22562 7.31551 5.22562C5.29671 5.22562 3.66016 6.85087 3.66016 8.85572C3.66016 10.8606 5.29671 12.4858 7.31551 12.4858Z" fill="#12208A"/>
    <defs>
        <filter id="filter0_d_61_81" x="9.74414" y="0.0216064" width="7.1748" height="7.15302" filterUnits="userSpaceOnUse" color-interpolation-filters="sRGB">
            <feFlood flood-opacity="0" result="BackgroundImageFix"/>
            <feColorMatrix in="SourceAlpha" type="matrix" values="0 0 0 0 0 0 0 0 0 0 0 0 0 0 0 0 0 0 127 0" result="hardAlpha"/>
            <feOffset dy="1"/>
            <feGaussianBlur stdDeviation="1"/>
            <feComposite in2="hardAlpha" operator="out"/>
            <feColorMatrix type="matrix" values="0 0 0 0 0 0 0 0 0 0 0 0 0 0 0 0 0 0 0.1 0"/>
            <feBlend mode="normal" in2="BackgroundImageFix" result="effect1_dropShadow_61_81"/>
            <feBlend mode="normal" in="SourceGraphic" in2="effect1_dropShadow_61_81" result="shape"/>
        </filter>
        <linearGradient id="paint0_linear_61_81" x1="1.84738" y1="14.6887" x2="7.3355" y2="-1.59278" gradientUnits="userSpaceOnUse">
            <stop stop-color="#000D70"/>
            <stop offset="0.696275" stop-color="#6B73B4"/>
            <stop offset="1" stop-color="#E2E3EC"/>
        </linearGradient>
        <radialGradient id="paint1_radial_61_81" cx="0" cy="0" r="1" gradientUnits="userSpaceOnUse" gradientTransform="translate(10.9527 6.44708) rotate(138.252) scale(8.28493 7.81012)">
            <stop stop-color="white"/>
            <stop offset="0.421875" stop-color="#E4E1EB"/>
            <stop offset="0.78125" stop-color="#FAFBFB" stop-opacity="0.85"/>
            <stop offset="0.921875" stop-color="#2B3688"/>
        </radialGradient>
    </defs>
</svg>